<svg xmlns="http://www.w3.org/2000/svg" version="1.1" xmlns:xlink="http://www.w3.org/1999/xlink" xmlns:svgjs="http://svgjs.dev/svgjs" width="1000" height="623" viewBox="0 0 1000 623"><g transform="matrix(1,0,0,1,-0.6060606060606233,0.2522267206477409)"><svg viewBox="0 0 396 247" data-background-color="#ffffff" preserveAspectRatio="xMidYMid meet" height="623" width="1000" xmlns="http://www.w3.org/2000/svg" xmlns:xlink="http://www.w3.org/1999/xlink"><g id="tight-bounds" transform="matrix(1,0,0,1,0.2400000000000091,-0.09999999999999432)"><svg viewBox="0 0 395.52 247.2" height="247.2" width="395.52"><g><svg></svg></g><g><svg viewBox="0 0 395.52 247.2" height="247.2" width="395.52"><g><path xmlns="http://www.w3.org/2000/svg" d="M55.039 247.2l30.893-53.508 223.656 0 30.893 53.508zM197.76 0l30.893 53.508-61.786 0z" fill="#000000" fill-rule="nonzero" stroke="none" stroke-width="1" stroke-linecap="butt" stroke-linejoin="miter" stroke-miterlimit="10" stroke-dasharray="" stroke-dashoffset="0" font-family="none" font-weight="none" font-size="none" text-anchor="none" style="mix-blend-mode: normal" data-fill-palette-color="tertiary"></path></g><g transform="matrix(1,0,0,1,0,73.53426479933867)"><svg viewBox="0 0 395.52 100.13147040132266" height="100.13147040132266" width="395.52"><g><svg viewBox="0 0 395.52 100.13147040132266" height="100.13147040132266" width="395.52"><g><svg viewBox="0 0 395.52000000000004 100.13147040132267" height="100.13147040132266" width="395.52"><g><svg viewBox="0 0 395.52000000000004 100.13147040132267" height="100.13147040132267" width="395.52000000000004"><g id="textblocktransform"><svg viewBox="0 0 395.52000000000004 100.13147040132267" height="100.13147040132267" width="395.52000000000004" id="textblock"><g><svg viewBox="0 0 395.52000000000004 59.12637090107467" height="59.12637090107467" width="395.52000000000004"><g transform="matrix(1,0,0,1,0,0)"><svg width="395.52000000000004" viewBox="2.0999999046325684 -41.849998474121094 363.8699951171875 55.25" height="59.12637090107467" data-palette-color="#000000"><path d="M16.95 0L5.1 0 5.1-36.3 15.2-36.3Q20.6-36.3 24.4-34.65 28.2-33 30.53-30.3 32.85-27.6 33.93-24.3 35-21 35-17.65L35-17.65Q35-13.6 33.55-10.35 32.1-7.1 29.6-4.78 27.1-2.45 23.85-1.23 20.6 0 16.95 0L16.95 0ZM10.45-31.15L10.45-5.15 15.95-5.15Q18.9-5.15 21.38-6 23.85-6.85 25.68-8.5 27.5-10.15 28.5-12.55 29.5-14.95 29.5-18.05L29.5-18.05Q29.5-21.4 28.38-23.88 27.25-26.35 25.4-27.98 23.55-29.6 21.28-30.38 19-31.15 16.65-31.15L16.65-31.15 10.45-31.15ZM51.65 0.5L51.65 0.5Q48 0.5 45.4-0.93 42.8-2.35 41.4-4.88 40-7.4 40-10.65L40-10.65Q40-13.75 41.57-16.28 43.15-18.8 45.82-20.3 48.5-21.8 51.75-21.8L51.75-21.8Q55.95-21.8 58.72-19.35 61.5-16.9 62.45-12.5L62.45-12.5 45.4-6.6 44.2-9.6 57.85-14.5 56.8-13.85Q56.2-15.4 54.9-16.57 53.6-17.75 51.35-17.75L51.35-17.75Q49.55-17.75 48.12-16.88 46.7-16 45.87-14.48 45.05-12.95 45.05-10.9L45.05-10.9Q45.05-8.8 45.92-7.23 46.8-5.65 48.32-4.75 49.85-3.85 51.75-3.85L51.75-3.85Q53.1-3.85 54.32-4.35 55.55-4.85 56.65-5.6L56.65-5.6 59-1.8Q57.35-0.75 55.42-0.13 53.5 0.5 51.65 0.5ZM76.3 0.55L76.1 0.55 64.25-20.95 70.35-20.95 78.05-4.75 74.9-4.9 81.9-20.95 87.65-20.95 76.3 0.55ZM101.74 0.5L101.74 0.5Q98.09 0.5 95.49-0.93 92.89-2.35 91.49-4.88 90.09-7.4 90.09-10.65L90.09-10.65Q90.09-13.75 91.67-16.28 93.24-18.8 95.92-20.3 98.59-21.8 101.84-21.8L101.84-21.8Q106.04-21.8 108.82-19.35 111.59-16.9 112.54-12.5L112.54-12.5 95.49-6.6 94.29-9.6 107.94-14.5 106.89-13.85Q106.29-15.4 104.99-16.57 103.69-17.75 101.44-17.75L101.44-17.75Q99.64-17.75 98.22-16.88 96.79-16 95.97-14.48 95.14-12.95 95.14-10.9L95.14-10.9Q95.14-8.8 96.02-7.23 96.89-5.65 98.42-4.75 99.94-3.85 101.84-3.85L101.84-3.85Q103.19-3.85 104.42-4.35 105.64-4.85 106.74-5.6L106.74-5.6 109.09-1.8Q107.44-0.75 105.52-0.13 103.59 0.5 101.74 0.5ZM118.24-20.95L122.84-20.95 123.29-16.15 123.09-16.8Q124.14-19.05 126.34-20.43 128.54-21.8 131.54-21.8L131.54-21.8Q134.49-21.8 136.42-20.05 138.34-18.3 138.39-15.5L138.39-15.5 138.39 0 133.24 0 133.24-13.7Q133.19-15.3 132.29-16.32 131.39-17.35 129.49-17.4L129.49-17.4Q127.79-17.4 126.39-16.38 124.99-15.35 124.19-13.6 123.39-11.85 123.39-9.55L123.39-9.55 123.39 0 118.24 0 118.24-20.95ZM146.29-20.95L150.89-20.95 151.39-14.95 151.14-15.75Q151.99-17.65 153.54-19 155.09-20.35 156.76-21.08 158.44-21.8 159.59-21.8L159.59-21.8 159.34-16.7Q156.94-16.85 155.16-15.8 153.39-14.75 152.39-13 151.39-11.25 151.39-9.25L151.39-9.25 151.39 0 146.29 0 146.29-20.95ZM174.79 10.4L174.79 10.4Q172.34 10.4 170.54 9.85 168.74 9.3 167.31 8.33 165.89 7.35 164.59 6.25L164.59 6.25 167.64 2.7Q169.19 4.15 170.84 5.03 172.49 5.9 174.69 5.9L174.69 5.9Q176.89 5.9 178.46 5.18 180.04 4.45 180.89 3.15 181.74 1.85 181.74 0.05L181.74 0.05 181.79-5.4 182.14-4.4Q181.29-2.35 178.99-0.93 176.69 0.5 173.34 0.5L173.34 0.5Q170.49 0.5 168.06-0.95 165.64-2.4 164.19-4.9 162.74-7.4 162.74-10.55L162.74-10.55Q162.74-13.85 164.26-16.38 165.79-18.9 168.29-20.38 170.79-21.85 173.64-21.85L173.64-21.85Q176.44-21.85 178.64-20.78 180.84-19.7 181.94-18.1L181.94-18.1 181.64-17.25 182.19-20.95 186.94-20.95 186.94 0.1Q186.94 3 185.41 5.33 183.89 7.65 181.19 9.03 178.49 10.4 174.79 10.4ZM167.94-10.7L167.94-10.7Q167.94-8.75 168.84-7.15 169.74-5.55 171.31-4.63 172.89-3.7 174.84-3.7L174.84-3.7Q176.59-3.7 177.99-4.33 179.39-4.95 180.36-6.03 181.34-7.1 181.79-8.55L181.79-8.55 181.79-12.9Q181.34-14.35 180.34-15.38 179.34-16.4 177.94-17 176.54-17.6 174.84-17.6L174.84-17.6Q172.89-17.6 171.31-16.73 169.74-15.85 168.84-14.3 167.94-12.75 167.94-10.7ZM201.58 10.05L196.53 10.05 210.38-20.95 215.08-20.95 201.58 10.05ZM205.78-2.45L201.83 0.15 191.68-20.95 197.48-20.95 205.78-2.45ZM236.93-36.3L246.88-36.3Q249.73-36.3 252.15-35.52 254.58-34.75 256.3-33.3 258.03-31.85 259-29.73 259.98-27.6 259.98-24.8L259.98-24.8Q259.98-22.65 259.33-20.55 258.68-18.45 257.23-16.75 255.78-15.05 253.43-14.03 251.08-13 247.58-13L247.58-13 242.28-13 242.28 0 236.93 0 236.93-36.3ZM242.28-18.1L247.48-18.1Q249.53-18.1 250.9-18.75 252.28-19.4 253.05-20.38 253.83-21.35 254.15-22.48 254.48-23.6 254.48-24.65L254.48-24.65Q254.48-25.65 254.15-26.75 253.83-27.85 253.05-28.85 252.28-29.85 250.98-30.5 249.68-31.15 247.78-31.15L247.78-31.15 242.28-31.15 242.28-18.1ZM247.28-14.85L253.63-15 263.03 0 256.83 0 247.28-14.85ZM277.78 0.5L277.78 0.5Q274.83 0.5 272.43-0.73 270.03-1.95 268.63-4.4 267.23-6.85 267.23-10.45L267.23-10.45Q267.23-14 268.7-16.55 270.18-19.1 272.6-20.48 275.03-21.85 277.88-21.85L277.88-21.85Q280.88-21.85 282.8-20.58 284.73-19.3 285.83-17.6L285.83-17.6 285.48-16.8 285.98-20.95 290.73-20.95 290.73 0 285.58 0 285.58-5.25 286.13-4Q285.93-3.6 285.28-2.88 284.63-2.15 283.55-1.35 282.48-0.55 281.05-0.03 279.63 0.5 277.78 0.5ZM279.18-3.7L279.18-3.7Q280.83-3.7 282.13-4.3 283.43-4.9 284.33-6 285.23-7.1 285.58-8.6L285.58-8.6 285.58-12.95Q285.18-14.35 284.23-15.38 283.28-16.4 281.95-17 280.63-17.6 279.03-17.6L279.03-17.6Q277.23-17.6 275.73-16.73 274.23-15.85 273.33-14.3 272.43-12.75 272.43-10.7L272.43-10.7Q272.43-8.75 273.35-7.15 274.28-5.55 275.83-4.63 277.38-3.7 279.18-3.7ZM307.17 0.5L307.17 0.5Q304.22 0.5 301.87-0.88 299.52-2.25 298.17-4.8 296.82-7.35 296.82-10.75L296.82-10.75Q296.82-14.25 298.27-16.73 299.72-19.2 302.2-20.53 304.67-21.85 307.77-21.85L307.77-21.85Q310.17-21.85 312.35-20.88 314.52-19.9 315.72-18.15L315.72-18.15 315.57-16.4 315.57-38.85 320.67-38.85 320.67 0 315.52 0 315.52-4.95 316.07-3.6Q314.52-1.85 312.27-0.68 310.02 0.5 307.17 0.5ZM308.77-3.85L308.77-3.85Q310.52-3.85 311.87-4.45 313.22-5.05 314.17-6.18 315.12-7.3 315.52-8.8L315.52-8.8 315.52-13Q315.17-14.4 314.2-15.48 313.22-16.55 311.82-17.15 310.42-17.75 308.77-17.75L308.77-17.75Q306.92-17.75 305.4-16.88 303.87-16 302.95-14.45 302.02-12.9 302.02-10.85L302.02-10.85Q302.02-8.9 302.95-7.3 303.87-5.7 305.42-4.78 306.97-3.85 308.77-3.85ZM328.57 0L328.57-20.95 333.72-20.95 333.72 0 328.57 0ZM328.27-28.45L328.27-28.45Q328.27-29.65 329.22-30.45 330.17-31.25 331.27-31.25L331.27-31.25Q332.42-31.25 333.32-30.45 334.22-29.65 334.22-28.45L334.22-28.45Q334.22-27.25 333.32-26.48 332.42-25.7 331.27-25.7L331.27-25.7Q330.17-25.7 329.22-26.48 328.27-27.25 328.27-28.45ZM339.77-10.7L339.77-10.7Q339.77-13.85 341.27-16.38 342.77-18.9 345.42-20.35 348.07-21.8 351.47-21.8L351.47-21.8Q354.92-21.8 357.52-20.35 360.12-18.9 361.54-16.38 362.97-13.85 362.97-10.7L362.97-10.7Q362.97-7.55 361.54-5 360.12-2.45 357.52-0.98 354.92 0.5 351.42 0.5L351.42 0.5Q348.07 0.5 345.44-0.85 342.82-2.2 341.29-4.73 339.77-7.25 339.77-10.7ZM344.97-10.65L344.97-10.65Q344.97-8.7 345.82-7.13 346.67-5.55 348.12-4.63 349.57-3.7 351.37-3.7L351.37-3.7Q353.22-3.7 354.67-4.63 356.12-5.55 356.94-7.13 357.77-8.7 357.77-10.65L357.77-10.65Q357.77-12.6 356.94-14.15 356.12-15.7 354.67-16.65 353.22-17.6 351.37-17.6L351.37-17.6Q349.52-17.6 348.07-16.65 346.62-15.7 345.79-14.13 344.97-12.55 344.97-10.65Z" opacity="1" transform="matrix(1,0,0,1,0,0)" fill="#000000" class="wordmark-text-0" data-fill-palette-color="primary" id="text-0"></path></svg></g></svg></g><g transform="matrix(1,0,0,1,2.5,66.95912408002204)"><svg viewBox="0 0 390.52000000000004 33.17234632130063" height="33.17234632130063" width="390.52000000000004"><g transform="matrix(1,0,0,1,0,0)"><svg width="390.52000000000004" viewBox="0.6100001335144043 -41.0099983215332 513.6000061035156 44.5" height="33.17234632130063" data-palette-color="#89939e"><path d="M3.61-35.55L11.62-35.55 21.88-8.3 32.1-35.55 40.09-35.55 40.09 0 33.94 0 33.94-11.72 34.55-27.39 24.05 0 19.63 0 9.16-27.37 9.77-11.72 9.77 0 3.61 0 3.61-35.55ZM67.84 0L67.7-2.59Q65.09 0.49 60.28 0.49L60.28 0.49Q55.98 0.49 53.77-2.03 51.56-4.54 51.56-9.3L51.56-9.3 51.56-26.42 57.49-26.42 57.49-9.38Q57.49-4.35 61.67-4.35L61.67-4.35Q65.99-4.35 67.5-7.45L67.5-7.45 67.5-26.42 73.44-26.42 73.44 0 67.84 0ZM99.17-7.18L99.17-7.18Q99.17-8.76 97.86-9.59 96.55-10.42 93.53-11.06 90.5-11.69 88.47-12.67L88.47-12.67Q84.03-14.82 84.03-18.9L84.03-18.9Q84.03-22.31 86.91-24.61 89.79-26.9 94.23-26.9L94.23-26.9Q98.97-26.9 101.89-24.56 104.81-22.22 104.81-18.48L104.81-18.48 98.87-18.48Q98.87-20.19 97.6-21.33 96.33-22.46 94.23-22.46L94.23-22.46Q92.28-22.46 91.05-21.56 89.81-20.65 89.81-19.14L89.81-19.14Q89.81-17.77 90.96-17.02 92.11-16.26 95.6-15.49 99.09-14.72 101.08-13.66 103.07-12.6 104.04-11.11 105-9.62 105-7.5L105-7.5Q105-3.93 102.05-1.72 99.09 0.49 94.31 0.49L94.31 0.49Q91.06 0.49 88.52-0.68 85.98-1.86 84.57-3.91 83.15-5.96 83.15-8.33L83.15-8.33 88.91-8.33Q89.03-6.23 90.5-5.09 91.96-3.96 94.38-3.96L94.38-3.96Q96.72-3.96 97.94-4.85 99.17-5.74 99.17-7.18ZM121.36-26.42L121.36 0 115.42 0 115.42-26.42 121.36-26.42ZM115.06-33.28L115.06-33.28Q115.06-34.64 115.92-35.55 116.79-36.45 118.4-36.45 120.01-36.45 120.89-35.55 121.77-34.64 121.77-33.28L121.77-33.28Q121.77-31.93 120.89-31.04 120.01-30.15 118.4-30.15 116.79-30.15 115.92-31.04 115.06-31.93 115.06-33.28ZM143.55-4.25L143.55-4.25Q145.77-4.25 147.23-5.54 148.7-6.84 148.79-8.74L148.79-8.74 154.39-8.74Q154.29-6.27 152.85-4.14 151.41-2 148.94-0.76 146.48 0.49 143.62 0.49L143.62 0.49Q138.08 0.49 134.83-3.1 131.58-6.69 131.58-13.01L131.58-13.01 131.58-13.62Q131.58-19.65 134.81-23.28 138.03-26.9 143.59-26.9L143.59-26.9Q148.31-26.9 151.27-24.16 154.24-21.41 154.39-16.94L154.39-16.94 148.79-16.94Q148.7-19.21 147.24-20.68 145.79-22.14 143.55-22.14L143.55-22.14Q140.66-22.14 139.1-20.06 137.54-17.97 137.52-13.72L137.52-13.72 137.52-12.77Q137.52-8.47 139.07-6.36 140.62-4.25 143.55-4.25ZM179.97-13.16L179.97-13.45Q179.97-17.33 181.51-20.45 183.04-23.56 185.83-25.23 188.61-26.9 192.22-26.9L192.22-26.9Q197.57-26.9 200.9-23.46 204.23-20.02 204.5-14.33L204.5-14.33 204.53-12.94Q204.53-9.03 203.03-5.96 201.52-2.88 198.73-1.2 195.93 0.49 192.27 0.49L192.27 0.49Q186.68 0.49 183.32-3.23 179.97-6.96 179.97-13.16L179.97-13.16ZM185.9-12.94L185.9-12.94Q185.9-8.86 187.58-6.56 189.27-4.25 192.27-4.25 195.27-4.25 196.95-6.59 198.62-8.94 198.62-13.45L198.62-13.45Q198.62-17.46 196.9-19.8 195.18-22.14 192.22-22.14L192.22-22.14Q189.32-22.14 187.61-19.84 185.9-17.53 185.9-12.94ZM222.45 0L216.51 0 216.51-22.02 212.48-22.02 212.48-26.42 216.51-26.42 216.51-28.83Q216.51-33.23 218.95-35.62 221.4-38.01 225.79-38.01L225.79-38.01Q227.35-38.01 229.11-37.57L229.11-37.57 228.96-32.93Q227.99-33.13 226.69-33.13L226.69-33.13Q222.45-33.13 222.45-28.76L222.45-28.76 222.45-26.42 227.82-26.42 227.82-22.02 222.45-22.02 222.45 0ZM255.86-32.84L261.8-32.84 261.8-26.42 266.46-26.42 266.46-22.02 261.8-22.02 261.8-7.28Q261.8-5.76 262.39-5.09 262.99-4.42 264.53-4.42L264.53-4.42Q265.56-4.42 266.61-4.66L266.61-4.66 266.61-0.07Q264.58 0.49 262.7 0.49L262.7 0.49Q255.86 0.49 255.86-7.06L255.86-7.06 255.86-22.02 251.52-22.02 251.52-26.42 255.86-26.42 255.86-32.84ZM281.72-37.5L281.72-23.54Q284.62-26.9 289.06-26.9L289.06-26.9Q297.51-26.9 297.63-17.26L297.63-17.26 297.63 0 291.7 0 291.7-17.04Q291.7-19.78 290.52-20.91 289.33-22.05 287.04-22.05L287.04-22.05Q283.47-22.05 281.72-18.87L281.72-18.87 281.72 0 275.78 0 275.78-37.5 281.72-37.5ZM320.14 0.49L320.14 0.49Q314.5 0.49 311-3.06 307.49-6.62 307.49-12.52L307.49-12.52 307.49-13.26Q307.49-17.21 309.02-20.32 310.55-23.44 313.31-25.17 316.06-26.9 319.46-26.9L319.46-26.9Q324.85-26.9 327.8-23.46 330.74-20.02 330.74-13.72L330.74-13.72 330.74-11.33 313.48-11.33Q313.74-8.06 315.66-6.15 317.58-4.25 320.48-4.25L320.48-4.25Q324.56-4.25 327.12-7.54L327.12-7.54 330.32-4.49Q328.74-2.12 326.09-0.82 323.44 0.49 320.14 0.49ZM319.43-22.14L319.43-22.14Q316.99-22.14 315.49-20.43 313.99-18.73 313.57-15.67L313.57-15.67 324.88-15.67 324.88-16.11Q324.68-19.09 323.29-20.62 321.9-22.14 319.43-22.14ZM365.57 0L359.64 0 359.64-22.02 355.61-22.02 355.61-26.42 359.64-26.42 359.64-28.83Q359.64-33.23 362.08-35.62 364.52-38.01 368.92-38.01L368.92-38.01Q370.48-38.01 372.24-37.57L372.24-37.57 372.09-32.93Q371.11-33.13 369.82-33.13L369.82-33.13Q365.57-33.13 365.57-28.76L365.57-28.76 365.57-26.42 370.94-26.42 370.94-22.02 365.57-22.02 365.57 0ZM396.31 0L396.16-2.59Q393.55 0.49 388.74 0.49L388.74 0.49Q384.44 0.49 382.23-2.03 380.02-4.54 380.02-9.3L380.02-9.3 380.02-26.42 385.96-26.42 385.96-9.38Q385.96-4.35 390.13-4.35L390.13-4.35Q394.45-4.35 395.96-7.45L395.96-7.45 395.96-26.42 401.9-26.42 401.9 0 396.31 0ZM414.32-32.84L420.25-32.84 420.25-26.42 424.92-26.42 424.92-22.02 420.25-22.02 420.25-7.28Q420.25-5.76 420.85-5.09 421.45-4.42 422.99-4.42L422.99-4.42Q424.01-4.42 425.06-4.66L425.06-4.66 425.06-0.07Q423.04 0.49 421.16 0.49L421.16 0.49Q414.32 0.49 414.32-7.06L414.32-7.06 414.32-22.02 409.98-22.02 409.98-26.42 414.32-26.42 414.32-32.84ZM450.48 0L450.33-2.59Q447.72 0.49 442.91 0.49L442.91 0.49Q438.61 0.49 436.4-2.03 434.19-4.54 434.19-9.3L434.19-9.3 434.19-26.42 440.13-26.42 440.13-9.38Q440.13-4.35 444.3-4.35L444.3-4.35Q448.62-4.35 450.14-7.45L450.14-7.45 450.14-26.42 456.07-26.42 456.07 0 450.48 0ZM480.85-26.56L480.82-21Q479.65-21.19 478.4-21.19L478.4-21.19Q474.33-21.19 472.91-18.07L472.91-18.07 472.91 0 466.98 0 466.98-26.42 472.64-26.42 472.79-23.46Q474.94-26.9 478.75-26.9L478.75-26.9Q480.02-26.9 480.85-26.56L480.85-26.56ZM500.62 0.49L500.62 0.49Q494.98 0.49 491.48-3.06 487.97-6.62 487.97-12.52L487.97-12.52 487.97-13.26Q487.97-17.21 489.5-20.32 491.02-23.44 493.78-25.17 496.54-26.9 499.94-26.9L499.94-26.9Q505.33-26.9 508.27-23.46 511.21-20.02 511.21-13.72L511.21-13.72 511.21-11.33 493.95-11.33Q494.22-8.06 496.14-6.15 498.06-4.25 500.96-4.25L500.96-4.25Q505.04-4.25 507.6-7.54L507.6-7.54 510.8-4.49Q509.21-2.12 506.56-0.82 503.91 0.49 500.62 0.49ZM499.91-22.14L499.91-22.14Q497.47-22.14 495.97-20.43 494.47-18.73 494.05-15.67L494.05-15.67 505.36-15.67 505.36-16.11Q505.16-19.09 503.77-20.62 502.38-22.14 499.91-22.14Z" opacity="1" transform="matrix(1,0,0,1,0,0)" fill="#89939e" class="slogan-text-1" data-fill-palette-color="secondary" id="text-1"></path></svg></g></svg></g></svg></g></svg></g></svg></g></svg></g></svg></g></svg></g><defs></defs></svg><rect width="395.52" height="247.2" fill="none" stroke="none" visibility="hidden"></rect></g></svg></g></svg>